<svg xmlns="http://www.w3.org/2000/svg" version="1.0" width="512.000000pt" height="512.000000pt" viewBox="0 0 512.000000 512.000000" preserveAspectRatio="xMidYMid meet">

<g transform="translate(0.000000,512.000000) scale(0.100000,-0.100000)" fill="#8c61ff" stroke="none">
<path d="M2270 5085 c-453 -63 -859 -260 -1183 -574 -183 -177 -306 -347 -417 -576 -104 -212 -159 -399 -191 -639 -18 -138 -7 -513 20 -652 84 -446 281 -821 662 -1266 207 -241 433 -463 1034 -1018 105 -96 230 -213 278 -259 l88 -84 107 104 c59 58 231 221 382 364 689 649 974 956 1199 1290 249 370 373 713 402 1111 51 719 -251 1379 -826 1804 -290 214 -607 342 -980 395 -125 18 -445 18 -575 0z m575 -419 c960 -173 1579 -1094 1374 -2045 -119 -548 -520 -1016 -1047 -1221 -242 -94 -515 -134 -757 -110 -421 40 -767 202 -1060 495 -145 145 -234 267 -320 440 -144 289 -203 589 -177 893 15 170 32 254 83 406 204 617 737 1059 1385 1151 126 18 396 13 519 -9z" fill="#8c61ff"/>
<path d="M2190 3550 l-350 -420 0 -50 0 -50 95 0 95 0 0 -330 0 -330 190 0 190 0 2 218 3 217 178 3 177 2 0 -220 0 -220 190 0 190 0 0 330 0 330 95 0 96 0 -3 54 -3 53 -345 416 -345 416 -52 1 -53 0 -350 -420z" fill="#8c61ff"/>
</g>
</svg>