<?xml version="1.0" encoding="UTF-8"?>
<!DOCTYPE svg PUBLIC "-//W3C//DTD SVG 1.1//EN" "http://www.w3.org/Graphics/SVG/1.1/DTD/svg11.dtd">
<svg xmlns="http://www.w3.org/2000/svg" version="1.1" width="512px" height="512px" style="shape-rendering:geometricPrecision; text-rendering:geometricPrecision; image-rendering:optimizeQuality; fill-rule:evenodd; clip-rule:evenodd" xmlns:xlink="http://www.w3.org/1999/xlink">
<g><path style="opacity:0.999" fill="#000000" d="M 166.5,-0.5 C 256.5,-0.5 346.5,-0.5 436.5,-0.5C 438.134,0.971672 439.634,2.63834 441,4.5C 441.667,141.167 441.667,277.833 441,414.5C 439.833,416.333 438.333,417.833 436.5,419C 422.837,419.5 409.171,419.667 395.5,419.5C 395.667,433.171 395.5,446.837 395,460.5C 393.833,462.333 392.333,463.833 390.5,465C 376.837,465.5 363.171,465.667 349.5,465.5C 349.667,479.171 349.5,492.837 349,506.5C 347.634,508.362 346.134,510.028 344.5,511.5C 254.5,511.5 164.5,511.5 74.5,511.5C 72.8657,510.028 71.3657,508.362 70,506.5C 69.3333,369.833 69.3333,233.167 70,96.5C 71.1667,94.6667 72.6667,93.1667 74.5,92C 88.1626,91.5001 101.829,91.3334 115.5,91.5C 115.333,77.8293 115.5,64.1626 116,50.5C 117.167,48.6667 118.667,47.1667 120.5,46C 134.163,45.5001 147.829,45.3334 161.5,45.5C 161.333,31.8293 161.5,18.1626 162,4.5C 163.366,2.63834 164.866,0.971672 166.5,-0.5 Z"/></g>
<g><path style="opacity:1" fill="#fed98e" d="M 336.5,229.5 C 328.167,229.5 319.833,229.5 311.5,229.5C 311.123,222.957 307.623,219.624 301,219.5C 294.921,220.079 291.754,223.412 291.5,229.5C 283.167,229.5 274.833,229.5 266.5,229.5C 266.245,224.829 263.911,221.662 259.5,220C 233.502,219.5 207.502,219.333 181.5,219.5C 181.5,152.833 181.5,86.1667 181.5,19.5C 261.5,19.5 341.5,19.5 421.5,19.5C 421.5,86.1667 421.5,152.833 421.5,219.5C 395.498,219.333 369.498,219.5 343.5,220C 339.089,221.662 336.755,224.829 336.5,229.5 Z"/></g>
<g><path style="opacity:1" fill="#040302" d="M 297.5,54.5 C 301.753,53.986 305.587,54.986 309,57.5C 314.961,68.5879 320.794,79.7546 326.5,91C 339.216,93.1192 351.883,95.4526 364.5,98C 370.988,103.605 371.155,109.439 365,115.5C 357.667,122.833 350.333,130.167 343,137.5C 343.716,149.727 345.216,161.894 347.5,174C 346.167,181.999 341.501,185.333 333.5,184C 322.882,178.502 312.216,173.336 301.5,168.5C 289.37,173.983 277.203,179.317 265,184.5C 260.85,183.688 257.85,181.354 256,177.5C 257.497,164.189 258.83,150.856 260,137.5C 251.303,129.137 242.969,120.47 235,111.5C 232.177,104.968 234.011,100.135 240.5,97C 252.426,94.5679 264.426,92.5679 276.5,91C 282.206,79.7546 288.039,68.5879 294,57.5C 295.518,56.8366 296.685,55.8366 297.5,54.5 Z"/></g>
<g><path style="opacity:1" fill="#a0c8ff" d="M 135.5,65.5 C 144.167,65.5 152.833,65.5 161.5,65.5C 161.5,132.167 161.5,198.833 161.5,265.5C 152.833,265.5 144.167,265.5 135.5,265.5C 135.5,198.833 135.5,132.167 135.5,65.5 Z"/></g>
<g><path style="opacity:1" fill="#f9bd42" d="M 300.5,87.5 C 301.496,87.4142 302.329,87.7476 303,88.5C 306.052,96.1199 310.218,102.953 315.5,109C 323.06,110.927 330.727,112.427 338.5,113.5C 332.816,119.35 327.316,125.35 322,131.5C 321.884,139.077 322.718,146.577 324.5,154C 324.167,154.833 323.833,155.667 323.5,156.5C 316.384,152.607 309.051,149.274 301.5,146.5C 293.949,149.274 286.616,152.607 279.5,156.5C 279.167,155.667 278.833,154.833 278.5,154C 280.282,146.577 281.116,139.077 281,131.5C 275.833,125.667 270.667,119.833 265.5,114C 273.509,111.833 281.509,109.667 289.5,107.5C 293.687,101.127 297.353,94.4607 300.5,87.5 Z"/></g>
<g><path style="opacity:1" fill="#fe9eb0" d="M 89.5,111.5 C 98.1667,111.5 106.833,111.5 115.5,111.5C 115.5,178.167 115.5,244.833 115.5,311.5C 106.833,311.5 98.1667,311.5 89.5,311.5C 89.5,244.833 89.5,178.167 89.5,111.5 Z"/></g>
<g><path style="opacity:1" fill="#0a0907" d="M 311.5,229.5 C 311.027,236.25 307.36,239.584 300.5,239.5C 294.763,238.724 291.763,235.391 291.5,229.5C 291.754,223.412 294.921,220.079 301,219.5C 307.623,219.624 311.123,222.957 311.5,229.5 Z"/></g>
<g><path style="opacity:1" fill="#fefefe" d="M 266.5,229.5 C 274.833,229.5 283.167,229.5 291.5,229.5C 291.763,235.391 294.763,238.724 300.5,239.5C 307.36,239.584 311.027,236.25 311.5,229.5C 319.833,229.5 328.167,229.5 336.5,229.5C 336.779,234.241 339.113,237.407 343.5,239C 369.498,239.5 395.498,239.667 421.5,239.5C 421.5,292.833 421.5,346.167 421.5,399.5C 341.5,399.5 261.5,399.5 181.5,399.5C 181.5,346.167 181.5,292.833 181.5,239.5C 207.502,239.667 233.502,239.5 259.5,239C 263.887,237.407 266.221,234.241 266.5,229.5 Z"/></g>
<g><path style="opacity:1" fill="#010101" d="M 220.5,265.5 C 274.501,265.333 328.501,265.5 382.5,266C 389.987,269.684 391.487,275.184 387,282.5C 385.581,283.46 384.081,284.293 382.5,285C 328.5,285.667 274.5,285.667 220.5,285C 213.08,281.206 211.58,275.706 216,268.5C 217.652,267.601 219.152,266.601 220.5,265.5 Z"/></g>
<g><path style="opacity:1" fill="#e7e9ef" d="M 135.5,285.5 C 144.167,285.5 152.833,285.5 161.5,285.5C 161.333,327.501 161.5,369.501 162,411.5C 162.427,415.527 164.594,418.027 168.5,419C 237.499,419.5 306.499,419.667 375.5,419.5C 375.5,428.167 375.5,436.833 375.5,445.5C 295.5,445.5 215.5,445.5 135.5,445.5C 135.5,392.167 135.5,338.833 135.5,285.5 Z"/></g>
<g><path style="opacity:1" fill="#010101" d="M 220.5,309.5 C 274.501,309.333 328.501,309.5 382.5,310C 389.987,313.684 391.487,319.184 387,326.5C 385.581,327.46 384.081,328.293 382.5,329C 328.5,329.667 274.5,329.667 220.5,329C 215.823,327.165 213.489,323.665 213.5,318.5C 214.17,314.14 216.503,311.14 220.5,309.5 Z"/></g>
<g><path style="opacity:1" fill="#fefefe" d="M 89.5,331.5 C 98.1667,331.5 106.833,331.5 115.5,331.5C 115.333,373.501 115.5,415.501 116,457.5C 116.427,461.527 118.594,464.027 122.5,465C 191.499,465.5 260.499,465.667 329.5,465.5C 329.5,474.167 329.5,482.833 329.5,491.5C 249.5,491.5 169.5,491.5 89.5,491.5C 89.5,438.167 89.5,384.833 89.5,331.5 Z"/></g>
<g><path style="opacity:1" fill="#010101" d="M 220.5,353.5 C 248.169,353.333 275.835,353.5 303.5,354C 311.896,357.086 313.729,362.586 309,370.5C 307.581,371.46 306.081,372.293 304.5,373C 276.5,373.667 248.5,373.667 220.5,373C 215.823,371.165 213.489,367.665 213.5,362.5C 214.17,358.14 216.503,355.14 220.5,353.5 Z"/></g>
</svg>
